<svg xmlns="http://www.w3.org/2000/svg" xmlns:xlink="http://www.w3.org/1999/xlink" width="220" height="85" version="1">
 <defs id="materia">
  <linearGradient id="linearGradient898">
   <stop style="stop-color:#000000;stop-opacity:0.40000001" offset="0"/>
   <stop style="stop-color:#000000;stop-opacity:0" offset="1"/>
  </linearGradient>
  <radialGradient id="radialGradient4263" cx="984" cy="905.362" r="8.5" fx="984" fy="905.362" gradientTransform="matrix(-1.6470644,1.9763779e-6,-1.9764705e-6,-1.6471416,1773.7132,1559.2568)" gradientUnits="userSpaceOnUse" xlink:href="#linearGradient898"/>
  <linearGradient id="linearGradient4259" x1="83.6" x2="83.6" y1="-969.362" y2="-955.363" gradientTransform="matrix(0.71428571,0,0,1,-317.71429,1250.3622)" gradientUnits="userSpaceOnUse" xlink:href="#linearGradient898"/>
  <radialGradient id="radialGradient3382" cx="984" cy="905.362" r="8.5" fx="984" fy="905.362" gradientTransform="matrix(7.5300815e-7,1.6471725,-1.6470262,7.5294127e-7,1694.1545,-1552.8194)" gradientUnits="userSpaceOnUse" xlink:href="#linearGradient898"/>
  <linearGradient id="linearGradient4452" x1="-260" x2="-260" y1="281" y2="295" gradientUnits="userSpaceOnUse" xlink:href="#linearGradient898"/>
  <radialGradient id="radialGradient4255" cx="982.909" cy="906.453" r="8.5" fx="982.909" fy="906.453" gradientTransform="matrix(1.6470672,1.3448263e-4,-1.3447081e-4,1.6469224,-1415.7953,-1474.9911)" gradientUnits="userSpaceOnUse" xlink:href="#linearGradient898"/>
  <radialGradient id="radialGradient4275" cx="984" cy="905.362" r="8.5" fx="984" fy="905.362" gradientTransform="matrix(-2.541006e-6,-1.6469304,1.6470409,-2.5411765e-6,-1338.1659,1638.5807)" gradientUnits="userSpaceOnUse" xlink:href="#linearGradient898"/>
  <linearGradient id="linearGradient4385" x1="83.6" x2="83.6" y1="-969.362" y2="-955.362" gradientTransform="matrix(0.71428571,0,0,1,-317.71429,1250.3622)" gradientUnits="userSpaceOnUse" xlink:href="#linearGradient898"/>
  <linearGradient id="linearGradient4387" x1="83.6" x2="83.6" y1="-969.362" y2="-955.361" gradientTransform="matrix(0.71428571,0,0,1,-317.71429,1250.3622)" gradientUnits="userSpaceOnUse" xlink:href="#linearGradient898"/>
  <style id="current-color-scheme" type="text/css">
   .ColorScheme-Background {color:#181818; } .ColorScheme-ButtonBackground { color:#343434; } .ColorScheme-Highlight { color:#4285f4; } .ColorScheme-Text { color:#dfdfdf; } .ColorScheme-ViewBackground { color:#242424; } .ColorScheme-NegativeText { color:#f44336; } .ColorScheme-PositiveText { color:#4caf50; } .ColorScheme-NeutralText { color:#ff9800; }
  </style>
 </defs>
 <rect id="center" style="fill:currentColor" class="ColorScheme-Background" width="50" height="50" x="7" y="28"/>
 <rect id="topleft" style="fill:currentColor" class="ColorScheme-Background" width="7" height="7" x="0" y="21"/>
 <rect id="left" style="fill:currentColor" class="ColorScheme-Background" width="7" height="50" x="0" y="28"/>
 <rect id="right" style="fill:currentColor" class="ColorScheme-Background" width="7" height="50" x="57" y="28"/>
 <rect id="bottomleft" style="fill:currentColor" class="ColorScheme-Background" width="7" height="7" x="0" y="78"/>
 <rect id="bottom" style="fill:currentColor" class="ColorScheme-Background" width="50" height="7" x="7" y="78"/>
 <rect id="bottomright" style="fill:currentColor" class="ColorScheme-Background" width="7" height="7" x="57" y="78"/>
 <rect id="topright" style="fill:currentColor" class="ColorScheme-Background" width="7" height="7" x="57" y="21"/>
 <rect id="top" style="fill:currentColor" class="ColorScheme-Background" width="50" height="7" x="7" y="21"/>

 <rect id="shadow-hint-right-margin" style="fill:#ff00ff" width="10" height="4" x="210" y="41"/>
 <rect id="shadow-hint-bottom-margin" style="fill:#ff00ff" width="4" height="10" x="176" y="75"/>
 <rect id="shadow-hint-left-margin" style="fill:#ff00ff" width="10" height="4" x="136" y="41"/>
 <rect id="shadow-hint-top-margin" style="fill:#ff00ff" width="4" height="10" x="177" y="1"/>
 <rect id="hint-top-margin" style="fill:#ff00ff" width="4" height="2" x="29" y="21"/>
 <rect id="hint-bottom-margin" style="fill:#ff00ff" width="4" height="2" x="29" y="83"/>
 <rect id="hint-left-margin" style="fill:#ff00ff" width="2" height="4" x="0" y="49"/>
 <rect id="hint-right-margin" style="fill:#ff00ff" width="2" height="4" x="62" y="49"/>

 <rect id="mask-center" style="fill:#000000" width="50" height="50" x="75" y="28"/>
 <rect id="mask-topleft" style="fill:#000000" height="7" width="7" x="68" y="21" />
 <rect id="mask-left" style="fill:#000000" width="7" height="50" x="68" y="28" />
 <rect id="mask-right" style="fill:#000000" width="7" height="50" x="125" y="28" />
 <rect id="mask-bottomleft" style="fill:#000000" width="7" height="7" x="68" y="78" />
 <rect id="mask-bottom" style="fill:#000000" width="50" height="7" x="75" y="78" />
 <rect id="mask-bottomright" style="fill:#000000" width="7" height="7" x="125" y="78" />
 <rect id="mask-topright" style="fill:#000000" width="7" height="7" x="125" y="21" />
 <rect id="mask-top" style="fill:#000000" width="50" height="7" x="75" y="21" />

 <rect id="hint-tile-center" style="fill:#ff00ff" width="5" height="5" x="0" y="0"/>
 <rect id="shadow-center" style="fill:none" width="50" height="50" x="153" y="18.06"/>
</svg>
