<svg xmlns="http://www.w3.org/2000/svg" xmlns:xlink="http://www.w3.org/1999/xlink" width="220" height="85" version="1">
 <defs id="materia">
  <linearGradient id="linearGradient905">
   <stop style="stop-color:#000000;stop-opacity:0.4" offset="0"/>
   <stop style="stop-color:#000000;stop-opacity:0" offset="1"/>
  </linearGradient>
  <radialGradient id="radialGradient4263" cx="984" cy="905.362" r="8.5" fx="984" fy="905.362" gradientTransform="matrix(-1.6470685,-5.6461859e-8,5.6464468e-8,-1.6471446,1773.7154,1559.2615)" gradientUnits="userSpaceOnUse" xlink:href="#linearGradient905"/>
  <linearGradient id="linearGradient4259" x1="83.6" x2="83.6" y1="-969.362" y2="-955.363" gradientTransform="matrix(0.71428571,0,0,1,-317.71429,1250.3622)" gradientUnits="userSpaceOnUse" xlink:href="#linearGradient905"/>
  <radialGradient id="radialGradient3382" cx="984" cy="905.362" r="8.5" fx="984" fy="905.362" gradientTransform="matrix(2.3679458e-6,1.6471768,-1.6470232,2.367725e-6,1694.1502,-1552.8251)" gradientUnits="userSpaceOnUse" xlink:href="#linearGradient905"/>
  <linearGradient id="linearGradient4452" x1="-260" x2="-260" y1="281" y2="295" gradientUnits="userSpaceOnUse" xlink:href="#linearGradient905"/>
  <radialGradient id="radialGradient4255" cx="982.909" cy="906.453" r="8.5" fx="982.909" fy="906.453" gradientTransform="matrix(1.6470681,-3.771647e-6,3.7713134e-6,1.6469224,-1415.9215,-1474.8552)" gradientUnits="userSpaceOnUse" xlink:href="#linearGradient905"/>
  <radialGradient id="radialGradient4275" cx="984" cy="905.362" r="8.5" fx="984" fy="905.362" gradientTransform="matrix(3.2745726e-6,-1.6469351,1.647045,3.2747911e-6,-1338.1753,1638.58)" gradientUnits="userSpaceOnUse" xlink:href="#linearGradient905"/>
  <linearGradient id="linearGradient4385" x1="83.6" x2="83.6" y1="-969.362" y2="-955.362" gradientTransform="matrix(0.71428571,0,0,1,-317.71429,1250.3622)" gradientUnits="userSpaceOnUse" xlink:href="#linearGradient905"/>
  <linearGradient id="linearGradient4387" x1="83.6" x2="83.6" y1="-969.362" y2="-955.361" gradientTransform="matrix(0.71428571,0,0,1,-317.71429,1250.3622)" gradientUnits="userSpaceOnUse" xlink:href="#linearGradient905"/>
  <style id="current-color-scheme" type="text/css">
   .ColorScheme-Background {color:#181818; } .ColorScheme-ButtonBackground { color:#343434; } .ColorScheme-Highlight { color:#4285f4; } .ColorScheme-Text { color:#dfdfdf; } .ColorScheme-ViewBackground { color:#242424; } .ColorScheme-NegativeText { color:#f44336; } .ColorScheme-PositiveText { color:#4caf50; } .ColorScheme-NeutralText { color:#ff9800; }
  </style>
 </defs>
 <rect id="center" style="fill:currentColor" class="ColorScheme-Background" width="50" height="50" x="7" y="28"/>
 <rect id="topleft" style="fill:currentColor" class="ColorScheme-Background" width="7" height="7" x="0" y="21"/>
 <rect id="left" style="fill:currentColor" class="ColorScheme-Background" width="7" height="50" x="0" y="28"/>
 <rect id="right" style="fill:currentColor" class="ColorScheme-Background" width="7" height="50" x="57" y="28"/>
 <rect id="bottomleft" style="fill:currentColor" class="ColorScheme-Background" width="7" height="7" x="0" y="78"/>
 <rect id="bottom" style="fill:currentColor" class="ColorScheme-Background" width="50" height="7" x="7" y="78"/>
 <rect id="bottomright" style="fill:currentColor" class="ColorScheme-Background" width="7" height="7" x="57" y="78"/>
 <rect id="topright" style="fill:currentColor" class="ColorScheme-Background" width="7" height="7" x="57" y="21"/>
 <rect id="top" style="fill:currentColor" class="ColorScheme-Background" width="50" height="7" x="7" y="21"/>

 <rect id="shadow-hint-right-margin" style="fill:#ff00ff" width="10" height="4" x="210" y="41"/>
 <rect id="shadow-hint-bottom-margin" style="fill:#ff00ff" width="4" height="10" x="176" y="75"/>
 <rect id="shadow-hint-left-margin" style="fill:#ff00ff" width="10" height="4" x="136" y="41"/>
 <rect id="shadow-hint-top-margin" style="fill:#ff00ff" width="4" height="10" x="177" y="1"/>
 <rect id="mask-center" style="fill:#000000" width="50" height="50" x="75" y="28"/>
 <rect id="mask-topleft" style="fill:#000000" height="7" width="7" x="68" y="21" />
 <rect id="mask-left" style="fill:#000000" width="7" height="50" x="68" y="28" />
 <rect id="mask-right" style="fill:#000000" width="7" height="50" x="125" y="28" />
 <rect id="mask-bottomleft" style="fill:#000000" width="7" height="7" x="68" y="78" />
 <rect id="mask-bottom" style="fill:#000000" width="50" height="7" x="75" y="78" />
 <rect id="mask-bottomright" style="fill:#000000" width="7" height="7" x="125" y="78" />
 <rect id="mask-topright" style="fill:#000000" width="7" height="7" x="125" y="21" />
 <rect id="mask-top" style="fill:#000000" width="50" height="7" x="75" y="21" />

 <rect id="hint-tile-center" style="fill:#ff00ff" width="5" height="5" x="0" y="0"/>
 <rect id="shadow-center" style="fill:none" width="50" height="50" x="153" y="18.06"/>
 <rect id="shadow-hint-top-inset" style="fill:#00ff00" width="4" height="10" x="172" y="75"/>
 <rect id="shadow-hint-bottom-inset" style="fill:#00ff00" width="4" height="10" x="173" y="1"/>
 <rect id="shadow-hint-right-inset" style="fill:#00ff00" width="4" height="10" x="37" y="-220" transform="rotate(90)"/>
 <rect id="shadow-hint-left-inset" style="fill:#00ff00" width="4" height="10" x="37" y="-146" transform="rotate(90)"/>
 <rect id="thick-hint-top-margin" style="fill:#ff00ff" width="4" height="8" x="29" y="21"/>
 <rect id="thick-hint-bottom-margin" style="fill:#ff00ff" width="4" height="8" x="29" y="77"/>
 <rect id="thick-right-margin" style="fill:#ff00ff" width="4" height="8" x="51" y="-64" transform="rotate(90)"/>
 <rect id="thick-hint-left-margin" style="fill:#ff00ff" width="4" height="8" x="51" y="-8" transform="rotate(90)"/>
 <rect id="thick-center" style="fill:#800080" width="2" height="2" x="5" y="0"/>
 <rect id="hint-top-margin" style="fill:#800080" width="4" height="4" x="29" y="21"/>
 <rect id="hint-bottom-margin" style="fill:#800080" width="4" height="4" x="29" y="81"/>
 <rect id="hint-left-margin" style="fill:#800080" width="4" height="4" x="0" y="51"/>
 <rect id="hint-right-margin" style="fill:#800080" width="4" height="4" x="60" y="51"/>
</svg>
