<svg xmlns="http://www.w3.org/2000/svg" width="129" height="85" version="1">
 <defs id="materia">
  <style id="current-color-scheme" type="text/css">
   .ColorScheme-Background {color:#181818; } .ColorScheme-ButtonBackground { color:#343434; } .ColorScheme-Highlight { color:#4285f4; } .ColorScheme-Text { color:#dfdfdf; } .ColorScheme-ViewBackground { color:#242424; } .ColorScheme-NegativeText { color:#f44336; } .ColorScheme-PositiveText { color:#4caf50; } .ColorScheme-NeutralText { color:#ff9800; }
  </style>
 </defs>

 <rect id="header-center" style="fill:currentColor" class="ColorScheme-Background" width="50" height="50" x="7" y="28"/>
 <rect id="header-bottomleft" style="fill:currentColor" class="ColorScheme-Background" width="7" height="7" x="0" y="78" />
 <rect id="header-left" style="fill:currentColor" class="ColorScheme-Background" width="7" height="50" x="0" y="28" />
 <rect id="header-right" style="fill:currentColor" class="ColorScheme-Background" width="7" height="50" x="57" y="28" />
 <rect id="header-bottomright" style="fill:currentColor" class="ColorScheme-Background" width="7" height="7" x="57" y="78" />
 <rect id="header-bottom" style="fill:currentColor" class="ColorScheme-Background" width="50" height="7" x="7" y="78" />
 <rect id="header-topleft" style="fill:currentColor" class="ColorScheme-Background" width="7" height="7" x="0" y="22" />
 <rect id="header-top" style="fill:currentColor" class="ColorScheme-Background" width="50" height="7" x="7" y="22" />
 <rect id="header-topright" style="fill:currentColor" class="ColorScheme-Background" width="7" height="7" x="57" y="22" />

 <rect id="hint-top-margin" style="fill:#ff00ff" width="4" height="7" x="30" y="28"/>
 <rect id="hint-left-margin" style="fill:#ff00ff" width="7" height="4" x="7" y="50"/>
 <rect id="hint-right-margin" style="fill:#ff00ff" width="7" height="4" x="50" y="50"/>
 <rect id="hint-tile-center" style="fill:#ff00ff" width="5" height="5" x="0" y="0"/>
 <rect id="hint-bottom-margin" style="fill:#ff00ff" width="4" height="7" x="30" y="71"/>

 <rect id="footer-center" style="fill:currentColor" class="ColorScheme-Background" width="50" height="50" x="72" y="28"/>
 <rect id="footer-bottomleft" style="fill:currentColor" class="ColorScheme-Background" width="7" height="7" x="65" y="78" />
 <rect id="footer-left" style="fill:currentColor" class="ColorScheme-Background" width="7" height="50" x="65" y="28" />
 <rect id="footer-right" style="fill:currentColor" class="ColorScheme-Background" width="7" height="50" x="122" y="28" />
 <rect id="footer-bottomright" style="fill:currentColor" class="ColorScheme-Background" width="7" height="7" x="122" y="78" />
 <rect id="footer-bottom" style="fill:currentColor" class="ColorScheme-Background" width="50" height="7" x="72" y="78" />
 <rect id="footer-topleft" style="fill:currentColor" class="ColorScheme-Background" width="7" height="7" x="65" y="22" />
 <rect id="footer-top" style="fill:currentColor" class="ColorScheme-Background" width="50" height="7" x="72" y="22" />
 <rect id="footer-topright" style="fill:currentColor" class="ColorScheme-Background" width="7" height="7" x="122" y="22" />
</svg>
