<svg xmlns="http://www.w3.org/2000/svg" width="228" height="84" version="1">
 <defs id="materia">
  <style id="current-color-scheme" type="text/css">
   .ColorScheme-Background {color:#181818; } .ColorScheme-ButtonBackground { color:#343434; } .ColorScheme-Highlight { color:#4285f4; } .ColorScheme-Text { color:#dfdfdf; } .ColorScheme-ViewBackground { color:#242424; } .ColorScheme-NegativeText { color:#f44336; } .ColorScheme-PositiveText { color:#4caf50; } .ColorScheme-NeutralText { color:#ff9800; }
  </style>
 </defs>
 <rect id="center" style="fill:currentColor" class="ColorScheme-Background" width="50" height="50" x="7" y="28"/>
 <rect id="topleft" style="fill:currentColor" class="ColorScheme-Background" width="7" height="7" x="0" y="21"/>
 <rect id="left" style="fill:currentColor" class="ColorScheme-Background" width="7" height="50" x="0" y="28"/>
 <rect id="right" style="fill:currentColor" class="ColorScheme-Background" width="7" height="50" x="57" y="28"/>
 <rect id="bottomleft" style="fill:currentColor" class="ColorScheme-Background" width="7" height="7" x="0" y="78"/>
 <rect id="bottom" style="fill:currentColor" class="ColorScheme-Background" width="50" height="7" x="7" y="78"/>
 <rect id="bottomright" style="fill:currentColor" class="ColorScheme-Background" width="7" height="7" x="57" y="78"/>
 <rect id="topright" style="fill:currentColor" class="ColorScheme-Background" width="7" height="7" x="57" y="21"/>
 <rect id="top" style="fill:currentColor" class="ColorScheme-Background" width="50" height="7" x="7" y="21"/>

 <rect id="hint-top-margin" style="fill:#ff00ff" width="4" height="10" x="29" y="27"/>
 <rect id="hint-bottom-margin" style="fill:#ff00ff" width="4" height="10" x="29" y="67"/>
 <rect id="hint-left-margin" style="fill:#ff00ff" width="10" height="4" x="7" y="49"/>
 <rect id="hint-right-margin" style="fill:#ff00ff" width="10" height="4" x="47" y="49"/>
 <rect id="hint-tile-center" style="fill:#ff00ff" width="5" height="5" x="0" y="2"/>
 <path id="shadow-topleft" style="opacity:0.001" d="m 144.00001,16.998965 h 10 v -2 c 0,-2.77 2.23,-5.0000004 5,-5.0000004 h 2 v -9.99999996 h -17 z"/>
 <g id="shadow-left" transform="matrix(-1,0,0,1,442.00001,-240.00103)">
  <rect style="opacity:0.001" width="50" height="10" x="-307" y="288" transform="rotate(-90)"/>
  <rect style="opacity:0;fill:#000000" width="7" height="1" x="278" y="257" transform="translate(3,2)"/>
 </g>
 <path id="shadow-bottomright" style="opacity:0.001" d="m 228.00001,66.998965 h -10 v 2 c 0,2.77 -2.23,5 -5,5 h -2 v 10 h 17 z"/>
 <g id="shadow-bottom" transform="rotate(90,341.00052,126.9995)">
  <rect style="opacity:0.001" width="50" height="10" x="-307" y="288" transform="rotate(-90)"/>
  <rect style="opacity:0;fill:#000000" width="7" height="1" x="278" y="257" transform="translate(3,2)"/>
 </g>
 <g id="shadow-right" transform="translate(-69.999994,-240.00103)">
  <rect style="opacity:0.001" width="50" height="10" x="-307" y="288" transform="rotate(-90)"/>
  <rect style="opacity:0;fill:#000000" width="7" height="1" x="278" y="257" transform="translate(3,2)"/>
 </g>
 <g id="shadow-top" transform="matrix(0,-1,-1,0,468.00001,297.99896)">
  <rect style="opacity:0.001" width="50" height="10" x="-307" y="288" transform="rotate(-90)"/>
  <rect style="opacity:0;fill:#000000" width="7" height="1" x="278" y="257" transform="translate(3,2)"/>
 </g>
 <path id="shadow-topright" style="opacity:0.001" d="M 211.00001,-0.00103536 V 9.9989646 h 2 c 2.77,0 5,2.2300004 5,5.0000004 v 2 h 10 V -0.00103536 Z"/>
 <path id="shadow-bottomleft" style="opacity:0.001" d="m 161.00001,83.998965 v -10 h -2 c -2.77,0 -5,-2.23 -5,-5 v -2 h -10 v 17 z"/>
 <rect id="shadow-hint-right-margin" style="fill:#ff00ff" width="10" height="4" x="218" y="40"/>
 <rect id="shadow-hint-bottom-margin" style="fill:#ff00ff" width="4" height="10" x="184" y="74"/>
 <rect id="shadow-hint-left-margin" style="fill:#ff00ff" width="10" height="4" x="144" y="40"/>
 <rect id="shadow-hint-top-margin" style="fill:#ff00ff" width="4" height="10" x="185" y="0"/>

 <rect id="mask-center" style="fill:#000000" width="50" height="50" x="79" y="28"/>
 <rect id="mask-topleft" style="fill:#000000" height="7" width="7" x="72" y="21" />
 <rect id="mask-left" style="fill:#000000" width="7" height="50" x="72" y="28" />
 <rect id="mask-right" style="fill:#000000" width="7" height="50" x="129" y="28" />
 <rect id="mask-bottomleft" style="fill:#000000" width="7" height="7" x="72" y="78" />
 <rect id="mask-bottom" style="fill:#000000" width="50" height="7" x="79" y="78" />
 <rect id="mask-bottomright" style="fill:#000000" width="7" height="7" x="129" y="78" />
 <rect id="mask-topright" style="fill:#000000" width="7" height="7" x="129" y="21" />
 <rect id="mask-top" style="fill:#000000" width="50" height="7" x="79" y="21" />

 <rect id="shadow-center" style="fill:none" width="50" height="50" x="161" y="17.06"/>
</svg>
